Normalized EMG Linear Envelopes
nRows=49
nColumns=17

endheader
time	        VM	        VL	        RF	       GRA	        TA	   ADDLONG	   SEMIMEM	      BFLH	        GM	        GL	       TFL	   GLUTMAX	   GLUTMED	      PIRI	    OBTINT	        QF	
1.7375	  0.566414	  0.415908	  0.057688	  0.392924	  0.236356	  0.090271	  0.635211	  0.855639	  0.458164	  0.171049	  0.028337	  0.494482	  0.210582	  0.480743	  1.698190	  0.913137	
1.738	  0.572104	  0.420721	  0.058744	  0.391771	  0.235695	  0.090064	  0.631574	  0.857460	  0.458287	  0.173105	  0.028637	  0.497996	  0.211620	  0.483016	  1.712774	  0.920198	
1.7385	  0.577766	  0.425520	  0.059809	  0.390601	  0.235042	  0.089848	  0.627946	  0.859295	  0.458436	  0.175187	  0.028943	  0.501528	  0.212668	  0.485306	  1.727366	  0.927226	
1.739	  0.583398	  0.430305	  0.060883	  0.389415	  0.234396	  0.089624	  0.624330	  0.861140	  0.458610	  0.177296	  0.029254	  0.505076	  0.213727	  0.487616	  1.741960	  0.934221	
1.7395	  0.588998	  0.435076	  0.061966	  0.388214	  0.233759	  0.089391	  0.620728	  0.862994	  0.458809	  0.179431	  0.029570	  0.508640	  0.214797	  0.489945	  1.756550	  0.941180	
1.74	  0.594564	  0.439832	  0.063059	  0.386997	  0.233131	  0.089150	  0.617145	  0.864853	  0.459034	  0.181593	  0.029892	  0.512218	  0.215876	  0.492295	  1.771130	  0.948100	
1.7405	  0.600093	  0.444572	  0.064159	  0.385766	  0.232514	  0.088901	  0.613581	  0.866717	  0.459284	  0.183782	  0.030218	  0.515808	  0.216966	  0.494667	  1.785693	  0.954979	
1.741	  0.605585	  0.449298	  0.065268	  0.384520	  0.231907	  0.088645	  0.610039	  0.868583	  0.459560	  0.185997	  0.030551	  0.519409	  0.218065	  0.497061	  1.800234	  0.961813	
1.7415	  0.611037	  0.454009	  0.066385	  0.383261	  0.231311	  0.088381	  0.606521	  0.870447	  0.459861	  0.188239	  0.030889	  0.523020	  0.219174	  0.499477	  1.814747	  0.968600	
1.742	  0.616448	  0.458704	  0.067509	  0.381989	  0.230727	  0.088109	  0.603030	  0.872308	  0.460188	  0.190507	  0.031232	  0.526639	  0.220292	  0.501918	  1.829224	  0.975338	
1.7425	  0.621817	  0.463385	  0.068641	  0.380704	  0.230156	  0.087829	  0.599567	  0.874163	  0.460541	  0.192802	  0.031580	  0.530265	  0.221420	  0.504382	  1.843660	  0.982023	
1.743	  0.627142	  0.468050	  0.069779	  0.379405	  0.229596	  0.087542	  0.596133	  0.876010	  0.460919	  0.195123	  0.031934	  0.533896	  0.222556	  0.506871	  1.858047	  0.988652	
1.7435	  0.632422	  0.472701	  0.070925	  0.378094	  0.229050	  0.087248	  0.592731	  0.877844	  0.461323	  0.197471	  0.032294	  0.537530	  0.223702	  0.509385	  1.872380	  0.995221	
1.744	  0.637657	  0.477338	  0.072077	  0.376771	  0.228516	  0.086946	  0.589362	  0.879664	  0.461753	  0.199844	  0.032659	  0.541164	  0.224856	  0.511924	  1.886652	  1.001728	
1.7445	  0.642846	  0.481960	  0.073235	  0.375434	  0.227996	  0.086638	  0.586026	  0.881466	  0.462210	  0.202243	  0.033029	  0.544796	  0.226019	  0.514489	  1.900857	  1.008167	
1.745	  0.647987	  0.486570	  0.074399	  0.374085	  0.227490	  0.086322	  0.582725	  0.883247	  0.462693	  0.204668	  0.033405	  0.548424	  0.227190	  0.517080	  1.914988	  1.014536	
1.7455	  0.653080	  0.491166	  0.075569	  0.372722	  0.226997	  0.085999	  0.579461	  0.885002	  0.463203	  0.207119	  0.033786	  0.552046	  0.228368	  0.519699	  1.929038	  1.020830	
1.746	  0.658123	  0.495750	  0.076744	  0.371346	  0.226519	  0.085669	  0.576233	  0.886728	  0.463741	  0.209594	  0.034172	  0.555659	  0.229555	  0.522345	  1.943001	  1.027045	
1.7465	  0.663116	  0.500322	  0.077924	  0.369956	  0.226054	  0.085333	  0.573042	  0.888422	  0.464309	  0.212094	  0.034564	  0.559261	  0.230748	  0.525021	  1.956870	  1.033176	
1.747	  0.668057	  0.504881	  0.079109	  0.368551	  0.225604	  0.084990	  0.569890	  0.890080	  0.464906	  0.214619	  0.034960	  0.562848	  0.231949	  0.527727	  1.970639	  1.039220	
1.7475	  0.672945	  0.509427	  0.080299	  0.367132	  0.225169	  0.084641	  0.566776	  0.891698	  0.465533	  0.217168	  0.035363	  0.566418	  0.233155	  0.530464	  1.984301	  1.045174	
1.748	  0.677780	  0.513961	  0.081494	  0.365697	  0.224747	  0.084286	  0.563701	  0.893273	  0.466192	  0.219741	  0.035770	  0.569969	  0.234367	  0.533231	  1.997848	  1.051034	
1.7485	  0.682560	  0.518482	  0.082693	  0.364247	  0.224340	  0.083926	  0.560665	  0.894802	  0.466883	  0.222339	  0.036183	  0.573497	  0.235585	  0.536030	  2.011274	  1.056796	
1.749	  0.687286	  0.522990	  0.083896	  0.362779	  0.223947	  0.083559	  0.557668	  0.896283	  0.467606	  0.224961	  0.036601	  0.576999	  0.236807	  0.538860	  2.024574	  1.062458	
1.7495	  0.691955	  0.527484	  0.085102	  0.361294	  0.223569	  0.083188	  0.554710	  0.897711	  0.468363	  0.227608	  0.037024	  0.580473	  0.238033	  0.541723	  2.037742	  1.068015	
1.75	  0.696567	  0.531964	  0.086312	  0.359792	  0.223204	  0.082812	  0.551792	  0.899086	  0.469154	  0.230279	  0.037452	  0.583914	  0.239263	  0.544617	  2.050775	  1.073466	
1.7505	  0.701120	  0.536429	  0.087525	  0.358272	  0.222854	  0.082432	  0.548913	  0.900404	  0.469980	  0.232975	  0.037885	  0.587320	  0.240496	  0.547543	  2.063670	  1.078805	
1.751	  0.705613	  0.540880	  0.088741	  0.356734	  0.222517	  0.082048	  0.546074	  0.901665	  0.470840	  0.235695	  0.038324	  0.590688	  0.241731	  0.550501	  2.076425	  1.084031	
1.7515	  0.710043	  0.545315	  0.089959	  0.355179	  0.222195	  0.081660	  0.543275	  0.902866	  0.471736	  0.238439	  0.038767	  0.594015	  0.242968	  0.553491	  2.089042	  1.089138	
1.752	  0.714410	  0.549735	  0.091179	  0.353608	  0.221887	  0.081269	  0.540516	  0.904005	  0.472667	  0.241208	  0.039216	  0.597297	  0.244207	  0.556512	  2.101522	  1.094125	
1.7525	  0.718711	  0.554140	  0.092402	  0.352020	  0.221594	  0.080876	  0.537798	  0.905082	  0.473635	  0.244001	  0.039669	  0.600532	  0.245446	  0.559565	  2.113868	  1.098986	
1.753	  0.722945	  0.558531	  0.093625	  0.350417	  0.221315	  0.080480	  0.535120	  0.906096	  0.474639	  0.246818	  0.040128	  0.603717	  0.246684	  0.562650	  2.126083	  1.103719	
1.7535	  0.727109	  0.562908	  0.094849	  0.348798	  0.221050	  0.080082	  0.532483	  0.907044	  0.475679	  0.249659	  0.040590	  0.606849	  0.247923	  0.565766	  2.138173	  1.108321	
1.754	  0.731201	  0.567271	  0.096074	  0.347166	  0.220799	  0.079683	  0.529886	  0.907928	  0.476757	  0.252524	  0.041058	  0.609924	  0.249159	  0.568914	  2.150140	  1.112790	
1.7545	  0.735220	  0.571620	  0.097299	  0.345519	  0.220563	  0.079283	  0.527331	  0.908747	  0.477872	  0.255412	  0.041530	  0.612941	  0.250394	  0.572094	  2.161989	  1.117123	
1.755	  0.739163	  0.575954	  0.098523	  0.343860	  0.220341	  0.078882	  0.524815	  0.909503	  0.479024	  0.258324	  0.042007	  0.615895	  0.251626	  0.575305	  2.173723	  1.121318	
1.7555	  0.743028	  0.580275	  0.099746	  0.342188	  0.220133	  0.078480	  0.522339	  0.910196	  0.480214	  0.261258	  0.042488	  0.618785	  0.252855	  0.578548	  2.185348	  1.125371	
1.756	  0.746814	  0.584582	  0.100969	  0.340505	  0.219938	  0.078079	  0.519904	  0.910827	  0.481442	  0.264214	  0.042973	  0.621606	  0.254079	  0.581823	  2.196869	  1.129281	
1.7565	  0.750519	  0.588875	  0.102189	  0.338811	  0.219757	  0.077677	  0.517508	  0.911397	  0.482708	  0.267192	  0.043463	  0.624356	  0.255299	  0.585130	  2.208293	  1.133043	
1.757	  0.754140	  0.593154	  0.103408	  0.337106	  0.219590	  0.077277	  0.515151	  0.911907	  0.484013	  0.270191	  0.043956	  0.627033	  0.256514	  0.588469	  2.219628	  1.136654	
1.7575	  0.757675	  0.597419	  0.104624	  0.335393	  0.219436	  0.076877	  0.512834	  0.912358	  0.485356	  0.273210	  0.044454	  0.629635	  0.257723	  0.591839	  2.230880	  1.140110	
1.758	  0.761123	  0.601670	  0.105837	  0.333670	  0.219296	  0.076478	  0.510556	  0.912749	  0.486738	  0.276250	  0.044955	  0.632159	  0.258925	  0.595241	  2.242059	  1.143408	
1.7585	  0.764481	  0.605905	  0.107047	  0.331940	  0.219170	  0.076081	  0.508318	  0.913082	  0.488158	  0.279308	  0.045460	  0.634605	  0.260119	  0.598674	  2.253172	  1.146543	
1.759	  0.767747	  0.610124	  0.108253	  0.330202	  0.219057	  0.075685	  0.506119	  0.913357	  0.489616	  0.282385	  0.045969	  0.636969	  0.261306	  0.602138	  2.264229	  1.149514	
1.7595	  0.770919	  0.614326	  0.109456	  0.328457	  0.218957	  0.075290	  0.503960	  0.913573	  0.491112	  0.285480	  0.046482	  0.639252	  0.262484	  0.605633	  2.275238	  1.152316	
1.76	  0.773995	  0.618510	  0.110653	  0.326706	  0.218871	  0.074898	  0.501839	  0.913732	  0.492645	  0.288593	  0.046997	  0.641452	  0.263653	  0.609158	  2.286208	  1.154947	
1.7605	  0.776972	  0.622675	  0.111846	  0.324949	  0.218798	  0.074508	  0.499757	  0.913832	  0.494215	  0.291724	  0.047516	  0.643567	  0.264811	  0.612715	  2.297148	  1.157405	
1.761	  0.779849	  0.626820	  0.113033	  0.323187	  0.218738	  0.074119	  0.497713	  0.913875	  0.495821	  0.294871	  0.048039	  0.645596	  0.265959	  0.616303	  2.308066	  1.159687	
1.7615	  0.782626	  0.630943	  0.114213	  0.321419	  0.218691	  0.073734	  0.495707	  0.913858	  0.497463	  0.298035	  0.048564	  0.647537	  0.267094	  0.619922	  2.318973	  1.161792	
